<?xml version="1.0" encoding="UTF-8"?>
<svg xmlns="http://www.w3.org/2000/svg" height="979.59183673469" viewBox="0 0 392 160" width="2400"><path d="m0 0h392v160h-392z" fill="#fff"/><path d="m179.69824 110.32017.0029 28.80125h8.13379v-28.80075zm-63.98724-.03917v28.84038h8.20638v-21.89884l6.35733.00217a5.97833 5.97833 0 0 1 4.62061 1.60685c1.28662 1.37105 1.81174 3.58116 1.81174 7.62593v12.66393l7.94979-.00145.00145-15.93269c0-11.3726-7.24929-12.90624-14.34109-12.90624h-14.60621m77.08411.0401v28.80028h13.193c7.02921 0 9.32339-1.16908 11.80457-3.79014 1.754-1.84 2.88705-5.87922 2.88705-10.2934 0-4.04814-.95912-7.65976-2.63266-9.90876-3.0134-4.02182-7.35487-4.808-13.83613-4.808zm8.06853 6.27109h3.49736c5.07374 0 8.35508 2.27846 8.35508 8.19029 0 5.91328-3.28134 8.19175-8.35508 8.19175h-3.49732zm-32.89314-6.27109-6.78845 22.82586-6.50483-22.82442-8.7805-.00146 9.28979 28.80028h11.72339l9.36276-28.80028zm56.49429 28.80028h8.13521v-28.79882l-8.13716-.00146zm22.80221-28.78989-11.35812 28.78h8.02049l1.797-5.08677h13.44186l1.70108 5.08677h8.708l-11.44481-28.7824zm26.48125 29.66847a2.54061 2.54061 0 1 1 2.54075-2.54046 2.53987 2.53987 0 0 1 -2.54075 2.54046zm0-4.5932a2.05307 2.05307 0 1 0 2.01646 2.05274 1.99245 1.99245 0 0 0 -2.01646-2.05274zm.45632 3.40026-.49118-1.04579h-.288v1.04579h-.60347v-2.70219h1.10179a.85536.85536 0 0 1 .89835.84921.76058.76058 0 0 1 -.49832.716l.56861 1.13693zm-.358-2.20387h-.42117v.70177h.42117a.35149.35149 0 1 0 0-.70177zm-21.29949-21.02107 4.92733 13.48292h-10.01027z"/><path d="m168.9447 42.85644v-6.91929c.67138-.04757 1.35-.08347 2.0416-.10531 18.924-.59469 31.33954 16.26052 31.33954 16.26052s-13.40932 18.62441-27.78675 18.62441a17.42732 17.42732 0 0 1 -5.59439-.89463v-20.98129c7.367.88992 8.84823 4.1442 13.27862 11.527l9.85075-8.30554s-7.19066-9.431-19.31239-9.431a35.65918 35.65918 0 0 0 -3.817.22518m0-22.85644v10.33514c.67912-.05389 1.35909-.09676 2.0416-.12165 26.31676-.88653 43.46189 21.58261 43.46189 21.58261s-19.69361 23.947-40.20951 23.947a30.25525 30.25525 0 0 1 -5.294-.46641v6.3885a34.85638 34.85638 0 0 0 4.4084.28569c19.0929 0 32.90014-9.74956 46.27035-21.28982 2.215 1.775 11.29076 6.09267 13.1571 7.98508-12.7133 10.64175-42.33847 19.219-59.13367 19.219-1.61858 0-3.17519-.0976-4.70218-.2445v8.97831h72.56691v-76.599zm0 49.82214v5.4546c-17.6589-3.14832-22.55994-21.50434-22.55994-21.50434a38.17412 38.17412 0 0 1 22.55994-10.916v5.98441c-.011 0-.01814-.00277-.02769-.00277-7.389-.8875-13.16277 6.01692-13.16277 6.01692s3.23478 11.62226 13.19048 14.96713m-31.36384-16.84514a43.73468 43.73468 0 0 1 31.36384-17.03985v-5.602c-23.14654 1.8575-43.19085 21.461-43.19085 21.461s11.35191 32.82005 43.19085 35.82451v-5.95542c-23.36398-2.9396-31.36384-28.68824-31.36384-28.68824z" fill="#76b900"/></svg>
