<?xml version="1.0" encoding="UTF-8"?>
<svg xmlns="http://www.w3.org/2000/svg" height="979.59183673469" viewBox="0 0 392 160" width="2400"><path d="m0 0h392v160h-392z" fill="#fff"/><path d="m101.85264 71.15366v-3.96347c.38481-.02742.77346-.04793 1.1695-.06034 10.84039-.34071 17.95214 9.31439 17.95214 9.31439s-7.68112 10.66869-15.91688 10.66869a9.98763 9.98763 0 0 1 -3.20476-.51238v-12.0187c4.22026.50977 5.0686 2.37382 7.60648 6.60292l5.64279-4.75769a14.941 14.941 0 0 0 -11.06261-5.40241 20.46324 20.46324 0 0 0 -2.18666.129m0-13.09284v5.92027c.38911-.03076.77871-.05554 1.1695-.06961 15.0752-.50786 24.89629 12.36323 24.89629 12.36323s-11.281 13.71754-23.03316 13.71754a17.34363 17.34363 0 0 1 -3.03263-.26706v3.65948a19.96037 19.96037 0 0 0 2.52547.16356c10.93695 0 18.8458-5.58481 26.50476-12.19537 1.26895 1.01668 6.46777 3.49 7.53691 4.5741-7.2825 6.09578-24.25276 11.00917-33.87357 11.00917-.927 0-1.81876-.056-2.69357-.13995v5.143h41.56853v-43.87837zm0 28.53973v3.12464c-10.11532-1.8035-12.9229-12.3184-12.9229-12.3184a21.86733 21.86733 0 0 1 12.9229-6.25314v3.42819l-.01575-.00166c-4.23267-.50836-7.54 3.44655-7.54 3.44655s1.85285 6.65775 7.55573 8.57381m-17.966-9.64939a25.05247 25.05247 0 0 1 17.966-9.761v-3.20906c-13.25881 1.06413-24.74084 12.29362-24.74084 12.29362s6.50281 18.80022 24.74086 20.52147v-3.41151c-13.38354-1.68382-17.96599-16.43352-17.96599-16.43352z" fill="#76b900"/><path d="m218.2973 66.35212.00289 28.80124h8.1338v-28.80074zm-63.98735-.03912v28.84036h8.20639v-21.89888l6.35734.00218a5.97838 5.97838 0 0 1 4.62062 1.60684c1.28662 1.371 1.81174 3.58116 1.81174 7.62594v12.66392l7.9498-.00145.00145-15.93268c0-11.37261-7.2493-12.90625-14.34111-12.90625h-14.60623m77.08424.04011v28.80027h13.193c7.02922 0 9.3234-1.16908 11.80458-3.79014 1.754-1.84 2.88706-5.87921 2.88706-10.2934 0-4.04814-.95912-7.65975-2.63266-9.90875-3.0134-4.02182-7.35489-4.808-13.83615-4.808zm8.06854 6.27109h3.49733c5.07374 0 8.35509 2.27846 8.35509 8.19028 0 5.91329-3.28135 8.19175-8.35509 8.19175h-3.49733zm-32.8932-6.27109-6.78845 22.82591-6.50485-22.82442-8.78051-.00146 9.2898 28.80027h11.72341l9.36278-28.80027zm56.49439 28.80027h8.13524v-28.79881l-8.13717-.00146zm22.80226-28.78988-11.35813 28.78h8.0205l1.797-5.08677h13.44185l1.70108 5.08677h8.70805l-11.44485-28.7824zm5.28005 5.25059 4.92734 13.48293h-10.01026z"/><path d="m312.34746 96.03194a2.5406 2.5406 0 1 1 2.54076-2.54046 2.53986 2.53986 0 0 1 -2.54076 2.54046zm0-4.5932a2.05307 2.05307 0 1 0 2.01646 2.05274 1.99245 1.99245 0 0 0 -2.01646-2.05274zm.45632 3.40026-.49117-1.04578h-.288v1.04578h-.60347v-2.70218h1.1018a.85537.85537 0 0 1 .89835.8492.76058.76058 0 0 1 -.49833.71605l.56862 1.13693zm-.358-2.20386h-.42118v.70176h.42118a.35148.35148 0 1 0 0-.70176z"/></svg>
