<svg id="NVIDIA_Logo_V" data-name="NVIDIA Logo V" xmlns="http://www.w3.org/2000/svg" viewBox="0 0 1211.808 415.949"><defs><style>.cls-1{fill:none;}</style></defs><title>NVIDIA-LogoBlack</title><path id="Reg" d="M1080.665,262.245v-2.692h1.729c.944,0,2.229.07,2.229,1.224,0,1.246-.662,1.468-1.775,1.468h-2.183m0,1.892h1.155l2.68,4.7h2.939l-2.962-4.9a2.658,2.658,0,0,0,2.793-2.905c0-2.563-1.771-3.389-4.762-3.389h-4.328v11.192h2.485v-4.7m12.588-.876c0-6.573-5.108-10.386-10.8-10.386-5.73,0-10.833,3.813-10.833,10.386s5.1,10.395,10.833,10.395c5.69,0,10.8-3.826,10.8-10.395m-3.115,0a7.672,7.672,0,0,1-7.683,8v-.035a7.984,7.984,0,1,1,7.683-7.968Z"/><path id="NVIDIA" d="M696.8,152.076l.011,117.957h33.313V152.078Zm-262.063-.16V270.033h33.61V178.346l26.218.088c8.625,0,14.586,2.066,18.743,6.5,5.269,5.616,7.42,14.667,7.42,31.233v53.865h32.564v-65.26c0-46.576-29.689-52.857-58.734-52.857Zm315.7.164V270.033h54.034c28.789,0,38.183-4.787,48.345-15.521,7.184-7.537,11.825-24.08,11.825-42.158,0-16.581-3.928-31.372-10.784-40.583-12.339-16.47-30.121-19.691-56.666-19.691Zm33.045,25.684h14.325c20.779,0,34.218,9.332,34.218,33.545s-13.439,33.548-34.218,33.548H783.484ZM648.77,152.08l-27.8,93.484-26.641-93.478-35.961-.006,38.047,117.953h48.014L682.771,152.08ZM880.145,270.033h33.318V152.086l-33.326-.006Zm93.386-117.91L927.014,269.992h32.849l7.36-20.832h55.05l6.967,20.832H1064.9l-46.873-117.879Zm21.625,21.5,20.18,55.221h-41Z"/><path id="Eye_Mark" data-name="Eye Mark" d="M219.887,171.742V155.509c1.576-.113,3.168-.2,4.79-.247,44.4-1.4,73.527,38.149,73.527,38.149s-31.46,43.7-65.191,43.7a40.916,40.916,0,0,1-13.126-2.1V185.783c17.285,2.088,20.759,9.723,31.154,27.044l23.111-19.486s-16.87-22.127-45.309-22.127a83.962,83.962,0,0,0-8.956.528m0-53.625v24.248c1.593-.126,3.189-.227,4.79-.285,61.744-2.08,101.968,50.637,101.968,50.637s-46.2,56.183-94.337,56.183a71.1,71.1,0,0,1-12.421-1.093V262.8a81.731,81.731,0,0,0,10.343.67c44.795,0,77.188-22.874,108.557-49.949,5.2,4.164,26.49,14.294,30.869,18.734-29.827,24.967-99.333,45.091-138.737,45.091-3.8,0-7.449-.23-11.032-.573v21.064H390.141V118.117Zm0,116.892v12.8c-41.43-7.387-52.929-50.454-52.929-50.454s19.892-22.04,52.929-25.611v14.041c-.026,0-.042-.007-.065-.007-17.336-2.082-30.882,14.117-30.882,14.117s7.589,27.268,30.947,35.116M146.3,195.487s24.555-36.232,73.584-39.978V142.365c-54.305,4.359-101.332,50.352-101.332,50.352s26.634,77,101.332,84.051V262.8C165.071,255.9,146.3,195.487,146.3,195.487Z"/><rect class="cls-1" width="1211.808" height="415.949"/></svg>